# xmcd
#
# Track frame offsets: 
#        150
#        9774
#        26272
#        38261
#        51794
#        63352
#        78146
#        89211
#        99266
#        110392
#        119894
#        130132
#        142861
#        152191
#        163814
#        175191
#        187543
#        200128
#        211495
#        227654
#        237673
#        248521
#        259052
#        269557
#        279503
#        297264
#        309997
#        320579
#        329204
#        345389
#
# Disc length: 4783 seconds
#
# Revision: 2
# Processed by: cddbd v1.5.2PL0 Copyright (c) Steve Scherf et al.
# Submitted via: ExactAudioCopy v0.99pb4
#
DISCID=a812ad1e
DTITLE=Porter Wagoner - What Ain't To Be, Just Might Happen and Sings Hi
DTITLE=s Own
DYEAR=2010
DGENRE=Country
TTITLE0=What Ain't To Be, Just Might Happen
TTITLE1=Waldo The Weirdo
TTITLE2=The Rubber Room
TTITLE3=If I Lose My Mind
TTITLE4=Comes And Goes
TTITLE5=I Found A Man
TTITLE6=More Than Words Can Tell
TTITLE7=Little Bird
TTITLE8=Sitting In The Shade
TTITLE9=Many Kinds Of Love
TTITLE10=Be A Little Quieter
TTITLE11=Watching
TTITLE12=Albert Erving
TTITLE13=The Agony Of Waiting
TTITLE14=Late At Night
TTITLE15=The Late Love Of Mine
TTITLE16=Lonely Comin' Down
TTITLE17=The Way I See You
TTITLE18=Brother Harold Dee
TTITLE19=How High Is The Mountain
TTITLE20=You Gotta Have A License
TTITLE21=Stranger's Story
TTITLE22=Talkin' To Myself
TTITLE23=Tore Down
TTITLE24=I Haven't Learned A Thing
TTITLE25=Old Log Cabin For Sale
TTITLE26=I'm Gonna Feed 'em Now
TTITLE27=Carolina Moonshiner
TTITLE28=Mountain Music
TTITLE29=When Lea Jane Sang
EXTD=What Ain't To Be Just Might Happen and Porter Wagoner Sings His Own
EXTD=\n© 2010 The Omni Recording Corporation\n\nThis Compilation CD Re
EXTD=leased August 17, 2010\n"What Ain't To Be, Just Might Happen" LP 
EXTD=Originally Released as LSP-4661 in 1972\n"Porter Wagoner Sings Hi
EXTD=s Own" LP Originally Released as LSP-4586 in 1971\n\n\nAMG EXPERT
EXTD=REVIEW:  (What Ain't To Be, Just Might Happen)  During the boom 
EXTD=years of the Nashville sound, country veteran Porter Wagoner was 
EXTD=riding high with his popular TV variety show, scoring hits and re
EXTD=leasing bizarre solo efforts like What Ain't to Be, Just Might Ha
EXTD=ppen. Dating back to 1968's Bottom of the Bottle and 1970s Skid R
EXTD=ow Joe, Wagoner's taste for loose concept albums finds fresh legs
EXTD=with this record's gallery of insane drifters. While the town lo
EXTD=on is given the humanistic treatment on "Wally the Weirdo," those
EXTD=really beyond the pale are found running into walls and conjurin
EXTD=g rhymes in the "Rubber Room." Peopling the equally strange, psyc
EXTD=hedelic-light music are bits of insanity-inducing echo, some cart
EXTD=oonishly avant-garde vocal harmonies, and Wagoner's melodramatic 
EXTD=soliloquies. Completing the picture on "I Found a Man," Wagoner h
EXTD=imself loses it by mistaking his soul for a catatonic man in the 
EXTD=streets. Taking a break from these vaudevillian freakouts, "Wagon
EXTD=er" sets aside a few songs to chronicle country's garden-variety 
EXTD=nutters losing it over lost love and crazed relationships - the qu
EXTD=aintly bizarre backdrops of earlier numbers are soon replaced by 
EXTD=straight country. An oddly satisfying mix of pedal-steel toe-tapp
EXTD=ers and high-grade kitsch.  -- Stephen Cook\n\n
EXTT0=
EXTT1=
EXTT2=
EXTT3=
EXTT4=
EXTT5=
EXTT6=
EXTT7=
EXTT8=
EXTT9=
EXTT10=
EXTT11=
EXTT12=
EXTT13=
EXTT14=
EXTT15=
EXTT16=
EXTT17=
EXTT18=
EXTT19=
EXTT20=
EXTT21=
EXTT22=
EXTT23=
EXTT24=
EXTT25=
EXTT26=
EXTT27=
EXTT28=
EXTT29=
PLAYORDER=
